<svg width="1200" height="630" viewBox="0 0 1200 630" fill="none" xmlns="http://www.w3.org/2000/svg">
  <rect width="1200" height="630" fill="#FAFAFA" />
  <rect x="48" y="48" width="1104" height="534" rx="24" fill="white" stroke="#EBEBEB" />
  <path d="M144 482H1056" stroke="#EBEBEB" stroke-width="2" stroke-dasharray="8 8" />
  <path d="M144 368H1056" stroke="#EBEBEB" stroke-width="2" stroke-dasharray="8 8" />
  <path d="M144 254H1056" stroke="#EBEBEB" stroke-width="2" stroke-dasharray="8 8" />
  <path d="M144 140H1056" stroke="#EBEBEB" stroke-width="2" stroke-dasharray="8 8" />
  <path d="M144 520V108" stroke="#D4D4D4" stroke-width="3" />
  <path d="M144 520H1088" stroke="#D4D4D4" stroke-width="3" />
  <circle cx="304" cy="412" r="20" fill="#2563EB" fill-opacity="0.88" />
  <circle cx="412" cy="332" r="28" fill="#7C3AED" fill-opacity="0.84" />
  <circle cx="544" cy="280" r="18" fill="#171717" fill-opacity="0.92" />
  <circle cx="648" cy="214" r="24" fill="#DB2777" fill-opacity="0.82" />
  <circle cx="764" cy="250" r="34" fill="#16A34A" fill-opacity="0.8" />
  <circle cx="856" cy="176" r="22" fill="#0891B2" fill-opacity="0.82" />
  <circle cx="936" cy="132" r="30" fill="#EA580C" fill-opacity="0.8" />
  <rect x="96" y="96" width="168" height="32" rx="999" fill="#F5F5F5" />
  <text x="116" y="117" fill="#888888" font-family="Geist Mono, Arial, sans-serif" font-size="14" letter-spacing="1.4">SCATTER CHART</text>
  <text x="96" y="188" fill="#171717" font-family="Geist, Inter, Arial, sans-serif" font-size="56" font-weight="600" letter-spacing="-1.8">Free Online Scatter Chart Maker.</text>
  <text x="96" y="230" fill="#4D4D4D" font-family="Geist, Inter, Arial, sans-serif" font-size="22">Explore correlation, outliers, clusters, and bubble size in one clean view.</text>
  <rect x="884" y="88" width="228" height="92" rx="18" fill="#FAFAFA" stroke="#EBEBEB" />
  <text x="910" y="124" fill="#171717" font-family="Geist, Inter, Arial, sans-serif" font-size="18" font-weight="600">Renderer Switch</text>
  <text x="910" y="152" fill="#4D4D4D" font-family="Geist, Inter, Arial, sans-serif" font-size="16">Recharts / ECharts</text>
</svg>
